 <svg width="500" height="500" viewBox="0 0 1163 855" fill="none" xmlns="http://www.w3.org/2000/svg">
            <g id="Processing_svg 1">
            <g id="Processing svg">
            <g id="pro1">
            <path id="Vector" d="M250.929 0H83.6424L0 144.665L83.6424 289.33H250.929L334.571 144.665L250.929 0Z" fill="#E6E6E6"/>
            <path id="Vector 2" d="M93.0312 273.092H241.54L315.794 144.665L241.54 16.2379H93.0312L18.7769 144.665L93.0312 273.092Z" fill="white"/>
            <path id="Vector 3" d="M91.2376 113.195C95.0214 113.195 98.0887 110.132 98.0887 106.354C98.0887 102.575 95.0214 99.5123 91.2376 99.5123C87.4538 99.5123 84.3864 102.575 84.3864 106.354C84.3864 110.132 87.4538 113.195 91.2376 113.195Z" fill="#A3A1B7"/>
            <path id="Vector 4" d="M91.2376 151.506C95.0214 151.506 98.0887 148.443 98.0887 144.665C98.0887 140.887 95.0214 137.824 91.2376 137.824C87.4538 137.824 84.3864 140.887 84.3864 144.665C84.3864 148.443 87.4538 151.506 91.2376 151.506Z" fill="#A3A1B7"/>
            <path id="Vector 5" d="M91.2376 189.818C95.0214 189.818 98.0887 186.755 98.0887 182.976C98.0887 179.198 95.0214 176.135 91.2376 176.135C87.4538 176.135 84.3864 179.198 84.3864 182.976C84.3864 186.755 87.4538 189.818 91.2376 189.818Z" fill="#A3A1B7"/>
            <path id="Vector 6" d="M250.185 100.881H120.012V111.827H250.185V100.881Z" fill="#A3A1B7"/>
            <path id="Vector 7" d="M250.185 139.192H120.012V150.138H250.185V139.192Z" fill="#A3A1B7"/>
            <path id="Vector 8" d="M250.185 177.503H120.012V188.449H250.185V177.503Z" fill="#A3A1B7"/>
            </g>
            <g id="pro12">
            <path id="Vector_2" d="M250.929 0H83.6424L0 144.665L83.6424 289.33H250.929L334.571 144.665L250.929 0Z" fill="#0c0329"/>
            <path id="Vector 2_2" d="M93.0312 273.092H241.54L315.794 144.665L241.54 16.2379H93.0312L18.7769 144.665L93.0312 273.092Z" fill="white"/>
            <path id="Vector 3_2" d="M91.2376 113.195C95.0214 113.195 98.0887 110.132 98.0887 106.354C98.0887 102.575 95.0214 99.5123 91.2376 99.5123C87.4538 99.5123 84.3864 102.575 84.3864 106.354C84.3864 110.132 87.4538 113.195 91.2376 113.195Z" fill="#FFE609"/>
            <path id="Vector 4_2" d="M91.2376 151.506C95.0214 151.506 98.0887 148.443 98.0887 144.665C98.0887 140.887 95.0214 137.824 91.2376 137.824C87.4538 137.824 84.3864 140.887 84.3864 144.665C84.3864 148.443 87.4538 151.506 91.2376 151.506Z" fill="#FFE609"/>
            <path id="Vector 5_2" d="M91.2376 189.818C95.0214 189.818 98.0887 186.755 98.0887 182.976C98.0887 179.198 95.0214 176.135 91.2376 176.135C87.4538 176.135 84.3864 179.198 84.3864 182.976C84.3864 186.755 87.4538 189.818 91.2376 189.818Z" fill="#FFE609"/>
            <path id="Vector 6_2" d="M250.185 100.881H120.012V111.827H250.185V100.881Z" fill="#FFE609"/>
            <path id="Vector 7_2" d="M250.185 139.192H120.012V150.138H250.185V139.192Z" fill="#FFE609"/>
            <path id="Vector 8_2" d="M250.185 177.503H120.012V188.449H250.185V177.503Z" fill="#FFE609"/>
            </g>
            <g id="pro3">
            <path id="Vector 9" d="M1079.36 0H912.071L828.429 144.665L912.071 289.33H1079.36L1163 144.665L1079.36 0Z" fill="#E6E6E6"/>
            <path id="Vector 10" d="M921.46 273.092H1069.97L1144.22 144.665L1069.97 16.2379H921.46L847.205 144.665L921.46 273.092Z" fill="white"/>
            <path id="Vector 11" d="M919.666 113.195C923.45 113.195 926.517 110.132 926.517 106.354C926.517 102.575 923.45 99.5123 919.666 99.5123C915.882 99.5123 912.815 102.575 912.815 106.354C912.815 110.132 915.882 113.195 919.666 113.195Z" fill="#A3A1B7"/>
            <path id="Vector 12" d="M919.666 151.506C923.45 151.506 926.517 148.443 926.517 144.665C926.517 140.887 923.45 137.824 919.666 137.824C915.882 137.824 912.815 140.887 912.815 144.665C912.815 148.443 915.882 151.506 919.666 151.506Z" fill="#A3A1B7"/>
            <path id="Vector 13" d="M919.666 189.818C923.45 189.818 926.517 186.755 926.517 182.976C926.517 179.198 923.45 176.135 919.666 176.135C915.882 176.135 912.815 179.198 912.815 182.976C912.815 186.755 915.882 189.818 919.666 189.818Z" fill="#A3A1B7"/>
            <path id="Vector 14" d="M1078.61 100.881H948.441V111.827H1078.61V100.881Z" fill="#A3A1B7"/>
            <path id="Vector 15" d="M1078.61 139.192H948.441V150.138H1078.61V139.192Z" fill="#A3A1B7"/>
            <path id="Vector 16" d="M1078.61 177.503H948.441V188.449H1078.61V177.503Z" fill="#A3A1B7"/>
            </g>
            <g id="pro32">
            <path id="Vector 9_2" d="M1079.36 0H912.071L828.429 144.665L912.071 289.33H1079.36L1163 144.665L1079.36 0Z" fill="#0c0329"/>
            <path id="Vector 10_2" d="M921.46 273.092H1069.97L1144.22 144.665L1069.97 16.2379H921.46L847.205 144.665L921.46 273.092Z" fill="white"/>
            <path id="Vector 11_2" d="M919.666 113.195C923.45 113.195 926.517 110.132 926.517 106.354C926.517 102.575 923.45 99.5123 919.666 99.5123C915.882 99.5123 912.815 102.575 912.815 106.354C912.815 110.132 915.882 113.195 919.666 113.195Z" fill="#FFE609"/>
            <path id="Vector 12_2" d="M919.666 151.506C923.45 151.506 926.517 148.443 926.517 144.665C926.517 140.887 923.45 137.824 919.666 137.824C915.882 137.824 912.815 140.887 912.815 144.665C912.815 148.443 915.882 151.506 919.666 151.506Z" fill="#FFE609"/>
            <path id="Vector 13_2" d="M919.666 189.818C923.45 189.818 926.517 186.755 926.517 182.976C926.517 179.198 923.45 176.135 919.666 176.135C915.882 176.135 912.815 179.198 912.815 182.976C912.815 186.755 915.882 189.818 919.666 189.818Z" fill="#FFE609"/>
            <path id="Vector 14_2" d="M1078.61 100.881H948.441V111.827H1078.61V100.881Z" fill="#FFE609"/>
            <path id="Vector 15_2" d="M1078.61 139.192H948.441V150.138H1078.61V139.192Z" fill="#FFE609"/>
            <path id="Vector 16_2" d="M1078.61 177.503H948.441V188.449H1078.61V177.503Z" fill="#FFE609"/>
            </g>
            <g id="pro2">
            <path id="Vector 17" d="M664.329 1.40503H498.668L415.838 144.665L498.668 287.925H664.329L747.162 144.665L664.329 1.40503Z" fill="#E6E6E6"/>
            <path id="Vector 18" d="M507.967 271.845H655.033L728.566 144.665L655.033 17.4851H507.967L434.433 144.665L507.967 271.845Z" fill="white"/>
            <path id="Vector 19" d="M506.19 113.501C509.937 113.501 512.975 110.467 512.975 106.726C512.975 102.984 509.937 99.9509 506.19 99.9509C502.443 99.9509 499.406 102.984 499.406 106.726C499.406 110.467 502.443 113.501 506.19 113.501Z" fill="#A3A1B7"/>
            <path id="Vector 20" d="M506.19 151.44C509.937 151.44 512.975 148.407 512.975 144.665C512.975 140.923 509.937 137.89 506.19 137.89C502.443 137.89 499.406 140.923 499.406 144.665C499.406 148.407 502.443 151.44 506.19 151.44Z" fill="#A3A1B7"/>
            <path id="Vector 21" d="M506.19 189.379C509.937 189.379 512.975 186.346 512.975 182.604C512.975 178.863 509.937 175.829 506.19 175.829C502.443 175.829 499.406 178.863 499.406 182.604C499.406 186.346 502.443 189.379 506.19 189.379Z" fill="#A3A1B7"/>
            <path id="Vector 22" d="M663.594 101.306H534.686V112.146H663.594V101.306Z" fill="#A3A1B7"/>
            <path id="Vector 23" d="M663.594 139.245H534.686V150.085H663.594V139.245Z" fill="#A3A1B7"/>
            <path id="Vector 24" d="M663.594 177.184H534.686V188.024H663.594V177.184Z" fill="#A3A1B7"/>
            </g>
            <g id="pro22">
            <path id="Vector 17_2" d="M664.329 1.40503H498.668L415.838 144.665L498.668 287.925H664.329L747.162 144.665L664.329 1.40503Z" fill="#0c0329"/>
            <path id="Vector 18_2" d="M507.967 271.845H655.033L728.566 144.665L655.033 17.4851H507.967L434.433 144.665L507.967 271.845Z" fill="white"/>
            <path id="Vector 19_2" d="M506.19 113.501C509.937 113.501 512.975 110.467 512.975 106.726C512.975 102.984 509.937 99.9509 506.19 99.9509C502.443 99.9509 499.406 102.984 499.406 106.726C499.406 110.467 502.443 113.501 506.19 113.501Z" fill="#FFE609"/>
            <path id="Vector 20_2" d="M506.19 151.44C509.937 151.44 512.975 148.407 512.975 144.665C512.975 140.923 509.937 137.89 506.19 137.89C502.443 137.89 499.406 140.923 499.406 144.665C499.406 148.407 502.443 151.44 506.19 151.44Z" fill="#FFE609"/>
            <path id="Vector 21_2" d="M506.19 189.379C509.937 189.379 512.975 186.346 512.975 182.604C512.975 178.863 509.937 175.829 506.19 175.829C502.443 175.829 499.406 178.863 499.406 182.604C499.406 186.346 502.443 189.379 506.19 189.379Z" fill="#FFE609"/>
            <path id="Vector 22_2" d="M663.594 101.306H534.686V112.146H663.594V101.306Z" fill="#FFE609"/>
            <path id="Vector 23_2" d="M663.594 139.245H534.686V150.085H663.594V139.245Z" fill="#FFE609"/>
            <path id="Vector 24_2" d="M663.594 177.184H534.686V188.024H663.594V177.184Z" fill="#FFE609"/>
            </g>
            </g>
            </g>
            </svg>