<svg width="1567" height="793" viewBox="0 0 1567 793" fill="none" xmlns="http://www.w3.org/2000/svg">
<g id="Processing svg">
<path id="Dont Worry Analyzer is there to save your day . We got you covered mate !!" d="M46.2733 665.904C46.6253 665.936 47.0253 665.968 47.4733 666C47.9533 666 48.5133 666 49.1533 666C52.8973 666 55.6653 665.056 57.4573 663.168C59.2813 661.28 60.1933 658.672 60.1933 655.344C60.1933 651.856 59.3293 649.216 57.6013 647.424C55.8733 645.632 53.1373 644.736 49.3933 644.736C48.8813 644.736 48.3533 644.752 47.8093 644.784C47.2653 644.784 46.7533 644.816 46.2733 644.88V665.904ZM67.9213 655.344C67.9213 658.224 67.4733 660.736 66.5773 662.88C65.6813 665.024 64.4013 666.8 62.7373 668.208C61.1053 669.616 59.1053 670.672 56.7373 671.376C54.3693 672.08 51.7133 672.432 48.7693 672.432C47.4253 672.432 45.8573 672.368 44.0653 672.24C42.2733 672.144 40.5133 671.92 38.7853 671.568V639.168C40.5133 638.848 42.3053 638.64 44.1613 638.544C46.0493 638.416 47.6653 638.352 49.0093 638.352C51.8573 638.352 54.4333 638.672 56.7373 639.312C59.0733 639.952 61.0733 640.96 62.7373 642.336C64.4013 643.712 65.6813 645.472 66.5773 647.616C67.4733 649.76 67.9213 652.336 67.9213 655.344ZM97.3119 659.328C97.3119 661.312 97.0239 663.136 96.4479 664.8C95.8719 666.432 95.0399 667.84 93.9519 669.024C92.8639 670.176 91.5519 671.072 90.0159 671.712C88.5119 672.352 86.8159 672.672 84.9279 672.672C83.0719 672.672 81.3759 672.352 79.8399 671.712C78.3359 671.072 77.0399 670.176 75.9519 669.024C74.8639 667.84 74.0159 666.432 73.4079 664.8C72.7999 663.136 72.4959 661.312 72.4959 659.328C72.4959 657.344 72.7999 655.536 73.4079 653.904C74.0479 652.272 74.9119 650.88 75.9999 649.728C77.1199 648.576 78.4319 647.68 79.9359 647.04C81.4719 646.4 83.1359 646.08 84.9279 646.08C86.7519 646.08 88.4159 646.4 89.9199 647.04C91.4559 647.68 92.7679 648.576 93.8559 649.728C94.9439 650.88 95.7919 652.272 96.3999 653.904C97.0079 655.536 97.3119 657.344 97.3119 659.328ZM90.0159 659.328C90.0159 657.12 89.5679 655.392 88.6719 654.144C87.8079 652.864 86.5599 652.224 84.9279 652.224C83.2959 652.224 82.0319 652.864 81.1359 654.144C80.2399 655.392 79.7919 657.12 79.7919 659.328C79.7919 661.536 80.2399 663.296 81.1359 664.608C82.0319 665.888 83.2959 666.528 84.9279 666.528C86.5599 666.528 87.8079 665.888 88.6719 664.608C89.5679 663.296 90.0159 661.536 90.0159 659.328ZM102.852 647.616C104.068 647.264 105.636 646.944 107.556 646.656C109.476 646.336 111.492 646.176 113.604 646.176C115.748 646.176 117.524 646.464 118.932 647.04C120.372 647.584 121.508 648.368 122.34 649.392C123.172 650.416 123.764 651.632 124.116 653.04C124.468 654.448 124.644 656.016 124.644 657.744V672H117.492V658.608C117.492 656.304 117.188 654.672 116.58 653.712C115.972 652.752 114.836 652.272 113.172 652.272C112.66 652.272 112.116 652.304 111.54 652.368C110.964 652.4 110.452 652.448 110.004 652.512V672H102.852V647.616ZM130.878 640.464L138.03 639.312V646.752H146.622V652.704H138.03V661.584C138.03 663.088 138.286 664.288 138.798 665.184C139.342 666.08 140.414 666.528 142.014 666.528C142.782 666.528 143.566 666.464 144.366 666.336C145.198 666.176 145.95 665.968 146.622 665.712L147.63 671.28C146.766 671.632 145.806 671.936 144.75 672.192C143.694 672.448 142.398 672.576 140.862 672.576C138.91 672.576 137.294 672.32 136.014 671.808C134.734 671.264 133.71 670.528 132.942 669.6C132.174 668.64 131.63 667.488 131.31 666.144C131.022 664.8 130.878 663.312 130.878 661.68V640.464ZM186.777 642.288C187.161 643.6 187.577 645.088 188.025 646.752C188.505 648.384 189.001 650.08 189.513 651.84C190.057 653.6 190.601 655.36 191.145 657.12C191.689 658.88 192.217 660.512 192.729 662.016C193.145 660.384 193.561 658.608 193.977 656.688C194.425 654.768 194.841 652.784 195.225 650.736C195.609 648.688 195.977 646.656 196.329 644.64C196.713 642.592 197.065 640.624 197.385 638.736H205.161C204.041 644.304 202.745 649.952 201.273 655.68C199.833 661.408 198.265 666.848 196.569 672H189.705C188.585 668.928 187.497 665.712 186.441 662.352C185.385 658.96 184.345 655.568 183.321 652.176C182.297 655.568 181.273 658.96 180.249 662.352C179.225 665.712 178.153 668.928 177.033 672H170.169C168.473 666.848 166.889 661.408 165.417 655.68C163.977 649.952 162.697 644.304 161.577 638.736H169.689C170.009 640.624 170.361 642.592 170.745 644.64C171.129 646.656 171.529 648.688 171.945 650.736C172.361 652.784 172.777 654.768 173.193 656.688C173.641 658.608 174.089 660.384 174.537 662.016C175.113 660.448 175.673 658.784 176.217 657.024C176.761 655.264 177.289 653.504 177.801 651.744C178.313 649.984 178.777 648.288 179.193 646.656C179.641 645.024 180.041 643.568 180.393 642.288H186.777ZM231.515 659.328C231.515 661.312 231.227 663.136 230.651 664.8C230.075 666.432 229.243 667.84 228.155 669.024C227.067 670.176 225.755 671.072 224.219 671.712C222.715 672.352 221.019 672.672 219.131 672.672C217.275 672.672 215.579 672.352 214.043 671.712C212.539 671.072 211.243 670.176 210.155 669.024C209.067 667.84 208.219 666.432 207.611 664.8C207.003 663.136 206.699 661.312 206.699 659.328C206.699 657.344 207.003 655.536 207.611 653.904C208.251 652.272 209.115 650.88 210.203 649.728C211.323 648.576 212.635 647.68 214.139 647.04C215.675 646.4 217.339 646.08 219.131 646.08C220.955 646.08 222.619 646.4 224.123 647.04C225.659 647.68 226.971 648.576 228.059 649.728C229.147 650.88 229.995 652.272 230.603 653.904C231.211 655.536 231.515 657.344 231.515 659.328ZM224.219 659.328C224.219 657.12 223.771 655.392 222.875 654.144C222.011 652.864 220.763 652.224 219.131 652.224C217.499 652.224 216.235 652.864 215.339 654.144C214.443 655.392 213.995 657.12 213.995 659.328C213.995 661.536 214.443 663.296 215.339 664.608C216.235 665.888 217.499 666.528 219.131 666.528C220.763 666.528 222.011 665.888 222.875 664.608C223.771 663.296 224.219 661.536 224.219 659.328ZM252.271 653.088C251.631 652.928 250.879 652.768 250.015 652.608C249.151 652.416 248.223 652.32 247.231 652.32C246.783 652.32 246.239 652.368 245.599 652.464C244.991 652.528 244.527 652.608 244.207 652.704V672H237.055V648.096C238.335 647.648 239.839 647.232 241.567 646.848C243.327 646.432 245.279 646.224 247.423 646.224C247.807 646.224 248.271 646.256 248.815 646.32C249.359 646.352 249.903 646.416 250.447 646.512C250.991 646.576 251.535 646.672 252.079 646.8C252.623 646.896 253.087 647.024 253.471 647.184L252.271 653.088ZM272.521 653.088C271.881 652.928 271.129 652.768 270.265 652.608C269.401 652.416 268.473 652.32 267.481 652.32C267.033 652.32 266.489 652.368 265.849 652.464C265.241 652.528 264.777 652.608 264.457 652.704V672H257.305V648.096C258.585 647.648 260.089 647.232 261.817 646.848C263.577 646.432 265.529 646.224 267.673 646.224C268.057 646.224 268.521 646.256 269.065 646.32C269.609 646.352 270.153 646.416 270.697 646.512C271.241 646.576 271.785 646.672 272.329 646.8C272.873 646.896 273.337 647.024 273.721 647.184L272.521 653.088ZM301.471 646.752C300.031 651.616 298.527 656.176 296.959 660.432C295.391 664.688 293.679 668.816 291.823 672.816C291.151 674.256 290.479 675.472 289.807 676.464C289.135 677.488 288.399 678.32 287.599 678.96C286.799 679.632 285.887 680.112 284.863 680.4C283.871 680.72 282.703 680.88 281.359 680.88C280.239 680.88 279.199 680.768 278.239 680.544C277.311 680.352 276.543 680.128 275.935 679.872L277.183 674.16C277.919 674.416 278.575 674.592 279.151 674.688C279.727 674.784 280.335 674.832 280.975 674.832C282.255 674.832 283.231 674.48 283.903 673.776C284.607 673.104 285.199 672.16 285.679 670.944C284.047 667.744 282.415 664.16 280.783 660.192C279.151 656.192 277.615 651.712 276.175 646.752H283.759C284.079 648 284.447 649.36 284.863 650.832C285.311 652.272 285.775 653.744 286.255 655.248C286.735 656.72 287.215 658.16 287.695 659.568C288.207 660.976 288.687 662.256 289.135 663.408C289.551 662.256 289.983 660.976 290.431 659.568C290.879 658.16 291.311 656.72 291.727 655.248C292.175 653.744 292.591 652.272 292.975 650.832C293.391 649.36 293.759 648 294.079 646.752H301.471ZM339.589 672C339.237 670.848 338.837 669.664 338.389 668.448C337.973 667.232 337.557 666.016 337.141 664.8H324.181C323.765 666.016 323.333 667.232 322.885 668.448C322.469 669.664 322.085 670.848 321.733 672H313.957C315.205 668.416 316.389 665.104 317.509 662.064C318.629 659.024 319.717 656.16 320.773 653.472C321.861 650.784 322.917 648.24 323.941 645.84C324.997 643.408 326.085 641.04 327.205 638.736H334.357C335.445 641.04 336.517 643.408 337.573 645.84C338.629 648.24 339.685 650.784 340.741 653.472C341.829 656.16 342.933 659.024 344.053 662.064C345.173 665.104 346.357 668.416 347.605 672H339.589ZM330.613 646.272C330.453 646.752 330.213 647.408 329.893 648.24C329.573 649.072 329.205 650.032 328.789 651.12C328.373 652.208 327.909 653.408 327.397 654.72C326.917 656.032 326.421 657.408 325.909 658.848H335.365C334.853 657.408 334.357 656.032 333.877 654.72C333.397 653.408 332.933 652.208 332.485 651.12C332.069 650.032 331.701 649.072 331.381 648.24C331.061 647.408 330.805 646.752 330.613 646.272ZM351.43 647.616C352.646 647.264 354.214 646.944 356.134 646.656C358.054 646.336 360.07 646.176 362.182 646.176C364.326 646.176 366.102 646.464 367.51 647.04C368.95 647.584 370.086 648.368 370.918 649.392C371.75 650.416 372.342 651.632 372.694 653.04C373.046 654.448 373.222 656.016 373.222 657.744V672H366.07V658.608C366.07 656.304 365.766 654.672 365.158 653.712C364.55 652.752 363.414 652.272 361.75 652.272C361.238 652.272 360.694 652.304 360.118 652.368C359.542 652.4 359.03 652.448 358.582 652.512V672H351.43V647.616ZM389.344 667.008C390.048 667.008 390.72 666.992 391.36 666.96C392 666.928 392.512 666.88 392.896 666.816V661.392C392.608 661.328 392.176 661.264 391.6 661.2C391.024 661.136 390.496 661.104 390.016 661.104C389.344 661.104 388.704 661.152 388.096 661.248C387.52 661.312 387.008 661.456 386.56 661.68C386.112 661.904 385.76 662.208 385.504 662.592C385.248 662.976 385.12 663.456 385.12 664.032C385.12 665.152 385.488 665.936 386.224 666.384C386.992 666.8 388.032 667.008 389.344 667.008ZM388.768 646.08C390.88 646.08 392.64 646.32 394.048 646.8C395.456 647.28 396.576 647.968 397.408 648.864C398.272 649.76 398.88 650.848 399.232 652.128C399.584 653.408 399.76 654.832 399.76 656.4V671.28C398.736 671.504 397.312 671.76 395.488 672.048C393.664 672.368 391.456 672.528 388.864 672.528C387.232 672.528 385.744 672.384 384.4 672.096C383.088 671.808 381.952 671.344 380.992 670.704C380.032 670.032 379.296 669.168 378.784 668.112C378.272 667.056 378.016 665.76 378.016 664.224C378.016 662.752 378.304 661.504 378.88 660.48C379.488 659.456 380.288 658.64 381.28 658.032C382.272 657.424 383.408 656.992 384.688 656.736C385.968 656.448 387.296 656.304 388.672 656.304C389.6 656.304 390.416 656.352 391.12 656.448C391.856 656.512 392.448 656.608 392.896 656.736V656.064C392.896 654.848 392.528 653.872 391.792 653.136C391.056 652.4 389.776 652.032 387.952 652.032C386.736 652.032 385.536 652.128 384.352 652.32C383.168 652.48 382.144 652.72 381.28 653.04L380.368 647.28C380.784 647.152 381.296 647.024 381.904 646.896C382.544 646.736 383.232 646.608 383.968 646.512C384.704 646.384 385.472 646.288 386.272 646.224C387.104 646.128 387.936 646.08 388.768 646.08ZM416.307 672.48C414.227 672.448 412.531 672.224 411.219 671.808C409.939 671.392 408.915 670.816 408.147 670.08C407.411 669.312 406.899 668.4 406.611 667.344C406.355 666.256 406.227 665.04 406.227 663.696V635.904L413.379 634.752V662.256C413.379 662.896 413.427 663.472 413.523 663.984C413.619 664.496 413.795 664.928 414.051 665.28C414.339 665.632 414.739 665.92 415.251 666.144C415.763 666.368 416.451 666.512 417.315 666.576L416.307 672.48ZM443.315 646.752C441.875 651.616 440.371 656.176 438.803 660.432C437.235 664.688 435.523 668.816 433.667 672.816C432.995 674.256 432.323 675.472 431.651 676.464C430.979 677.488 430.243 678.32 429.443 678.96C428.643 679.632 427.731 680.112 426.707 680.4C425.715 680.72 424.547 680.88 423.203 680.88C422.083 680.88 421.043 680.768 420.083 680.544C419.155 680.352 418.387 680.128 417.779 679.872L419.027 674.16C419.763 674.416 420.419 674.592 420.995 674.688C421.571 674.784 422.179 674.832 422.819 674.832C424.099 674.832 425.075 674.48 425.747 673.776C426.451 673.104 427.043 672.16 427.523 670.944C425.891 667.744 424.259 664.16 422.627 660.192C420.995 656.192 419.459 651.712 418.019 646.752H425.603C425.923 648 426.291 649.36 426.707 650.832C427.155 652.272 427.619 653.744 428.099 655.248C428.579 656.72 429.059 658.16 429.539 659.568C430.051 660.976 430.531 662.256 430.979 663.408C431.395 662.256 431.827 660.976 432.275 659.568C432.723 658.16 433.155 656.72 433.571 655.248C434.019 653.744 434.435 652.272 434.819 650.832C435.235 649.36 435.603 648 435.923 646.752H443.315ZM466.718 651.552C466.142 652.192 465.358 653.056 464.366 654.144C463.406 655.232 462.366 656.432 461.246 657.744C460.126 659.056 458.99 660.432 457.838 661.872C456.718 663.312 455.694 664.704 454.766 666.048H466.958V672H446.078V667.776C446.75 666.624 447.55 665.392 448.478 664.08C449.438 662.736 450.43 661.392 451.454 660.048C452.51 658.704 453.55 657.408 454.574 656.16C455.598 654.88 456.542 653.728 457.406 652.704H446.654V646.752H466.718V651.552ZM469.855 659.568C469.855 657.328 470.191 655.376 470.863 653.712C471.567 652.016 472.479 650.608 473.599 649.488C474.719 648.368 475.999 647.52 477.439 646.944C478.911 646.368 480.415 646.08 481.951 646.08C485.535 646.08 488.367 647.184 490.447 649.392C492.527 651.568 493.567 654.784 493.567 659.04C493.567 659.456 493.551 659.92 493.519 660.432C493.487 660.912 493.455 661.344 493.423 661.728H477.199C477.359 663.2 478.047 664.368 479.263 665.232C480.479 666.096 482.111 666.528 484.159 666.528C485.471 666.528 486.751 666.416 487.999 666.192C489.279 665.936 490.319 665.632 491.119 665.28L492.079 671.088C491.695 671.28 491.183 671.472 490.543 671.664C489.903 671.856 489.183 672.016 488.383 672.144C487.615 672.304 486.783 672.432 485.887 672.528C484.991 672.624 484.095 672.672 483.199 672.672C480.927 672.672 478.943 672.336 477.247 671.664C475.583 670.992 474.191 670.08 473.071 668.928C471.983 667.744 471.167 666.352 470.623 664.752C470.111 663.152 469.855 661.424 469.855 659.568ZM486.655 656.832C486.623 656.224 486.511 655.632 486.319 655.056C486.159 654.48 485.887 653.968 485.503 653.52C485.151 653.072 484.687 652.704 484.111 652.416C483.567 652.128 482.879 651.984 482.047 651.984C481.247 651.984 480.559 652.128 479.983 652.416C479.407 652.672 478.927 653.024 478.543 653.472C478.159 653.92 477.855 654.448 477.631 655.056C477.439 655.632 477.295 656.224 477.199 656.832H486.655ZM514.303 653.088C513.663 652.928 512.911 652.768 512.047 652.608C511.183 652.416 510.255 652.32 509.263 652.32C508.815 652.32 508.271 652.368 507.631 652.464C507.023 652.528 506.559 652.608 506.239 652.704V672H499.087V648.096C500.367 647.648 501.871 647.232 503.599 646.848C505.359 646.432 507.311 646.224 509.455 646.224C509.839 646.224 510.303 646.256 510.847 646.32C511.391 646.352 511.935 646.416 512.479 646.512C513.023 646.576 513.567 646.672 514.111 646.8C514.655 646.896 515.119 647.024 515.503 647.184L514.303 653.088ZM538.02 672H530.868V646.752H538.02V672ZM538.692 639.456C538.692 640.768 538.26 641.808 537.396 642.576C536.564 643.312 535.572 643.68 534.42 643.68C533.268 643.68 532.26 643.312 531.396 642.576C530.564 641.808 530.148 640.768 530.148 639.456C530.148 638.144 530.564 637.12 531.396 636.384C532.26 635.616 533.268 635.232 534.42 635.232C535.572 635.232 536.564 635.616 537.396 636.384C538.26 637.12 538.692 638.144 538.692 639.456ZM551.991 666.864C553.303 666.864 554.231 666.736 554.775 666.48C555.319 666.224 555.591 665.728 555.591 664.992C555.591 664.416 555.239 663.92 554.535 663.504C553.831 663.056 552.759 662.56 551.319 662.016C550.199 661.6 549.175 661.168 548.247 660.72C547.351 660.272 546.583 659.744 545.943 659.136C545.303 658.496 544.807 657.744 544.455 656.88C544.103 656.016 543.927 654.976 543.927 653.76C543.927 651.392 544.807 649.52 546.567 648.144C548.327 646.768 550.743 646.08 553.815 646.08C555.351 646.08 556.823 646.224 558.231 646.512C559.639 646.768 560.759 647.056 561.591 647.376L560.343 652.944C559.511 652.656 558.599 652.4 557.607 652.176C556.647 651.952 555.559 651.84 554.343 651.84C552.103 651.84 550.983 652.464 550.983 653.712C550.983 654 551.031 654.256 551.127 654.48C551.223 654.704 551.415 654.928 551.703 655.152C551.991 655.344 552.375 655.568 552.855 655.824C553.367 656.048 554.007 656.304 554.775 656.592C556.343 657.168 557.639 657.744 558.663 658.32C559.687 658.864 560.487 659.472 561.063 660.144C561.671 660.784 562.087 661.504 562.311 662.304C562.567 663.104 562.695 664.032 562.695 665.088C562.695 667.584 561.751 669.472 559.863 670.752C558.007 672.032 555.367 672.672 551.943 672.672C549.703 672.672 547.831 672.48 546.327 672.096C544.855 671.712 543.831 671.392 543.255 671.136L544.455 665.328C545.671 665.808 546.919 666.192 548.199 666.48C549.479 666.736 550.743 666.864 551.991 666.864ZM579.331 640.464L586.483 639.312V646.752H595.075V652.704H586.483V661.584C586.483 663.088 586.739 664.288 587.251 665.184C587.795 666.08 588.867 666.528 590.467 666.528C591.235 666.528 592.019 666.464 592.819 666.336C593.651 666.176 594.403 665.968 595.075 665.712L596.083 671.28C595.219 671.632 594.259 671.936 593.203 672.192C592.147 672.448 590.851 672.576 589.315 672.576C587.363 672.576 585.747 672.32 584.467 671.808C583.187 671.264 582.163 670.528 581.395 669.6C580.627 668.64 580.083 667.488 579.763 666.144C579.475 664.8 579.331 663.312 579.331 661.68V640.464ZM600.899 672V635.904L608.051 634.752V646.848C608.531 646.688 609.139 646.544 609.875 646.416C610.643 646.256 611.379 646.176 612.083 646.176C614.131 646.176 615.827 646.464 617.171 647.04C618.547 647.584 619.635 648.368 620.435 649.392C621.267 650.416 621.843 651.632 622.163 653.04C622.515 654.448 622.691 656.016 622.691 657.744V672H615.539V658.608C615.539 656.304 615.235 654.672 614.627 653.712C614.051 652.752 612.963 652.272 611.363 652.272C610.723 652.272 610.115 652.336 609.539 652.464C608.995 652.56 608.499 652.672 608.051 652.8V672H600.899ZM627.965 659.568C627.965 657.328 628.301 655.376 628.973 653.712C629.677 652.016 630.589 650.608 631.709 649.488C632.829 648.368 634.109 647.52 635.549 646.944C637.021 646.368 638.525 646.08 640.061 646.08C643.645 646.08 646.477 647.184 648.557 649.392C650.637 651.568 651.677 654.784 651.677 659.04C651.677 659.456 651.661 659.92 651.629 660.432C651.597 660.912 651.565 661.344 651.533 661.728H635.309C635.469 663.2 636.157 664.368 637.373 665.232C638.589 666.096 640.221 666.528 642.269 666.528C643.581 666.528 644.861 666.416 646.109 666.192C647.389 665.936 648.429 665.632 649.229 665.28L650.189 671.088C649.805 671.28 649.293 671.472 648.653 671.664C648.013 671.856 647.293 672.016 646.493 672.144C645.725 672.304 644.893 672.432 643.997 672.528C643.101 672.624 642.205 672.672 641.309 672.672C639.037 672.672 637.053 672.336 635.357 671.664C633.693 670.992 632.301 670.08 631.181 668.928C630.093 667.744 629.277 666.352 628.733 664.752C628.221 663.152 627.965 661.424 627.965 659.568ZM644.765 656.832C644.733 656.224 644.621 655.632 644.429 655.056C644.269 654.48 643.997 653.968 643.613 653.52C643.261 653.072 642.797 652.704 642.221 652.416C641.677 652.128 640.989 651.984 640.157 651.984C639.357 651.984 638.669 652.128 638.093 652.416C637.517 652.672 637.037 653.024 636.653 653.472C636.269 653.92 635.965 654.448 635.741 655.056C635.549 655.632 635.405 656.224 635.309 656.832H644.765ZM672.412 653.088C671.772 652.928 671.02 652.768 670.156 652.608C669.292 652.416 668.364 652.32 667.372 652.32C666.924 652.32 666.38 652.368 665.74 652.464C665.132 652.528 664.668 652.608 664.348 652.704V672H657.196V648.096C658.476 647.648 659.98 647.232 661.708 646.848C663.468 646.432 665.42 646.224 667.564 646.224C667.948 646.224 668.412 646.256 668.956 646.32C669.5 646.352 670.044 646.416 670.588 646.512C671.132 646.576 671.676 646.672 672.22 646.8C672.764 646.896 673.228 647.024 673.612 647.184L672.412 653.088ZM675.777 659.568C675.777 657.328 676.113 655.376 676.785 653.712C677.489 652.016 678.401 650.608 679.521 649.488C680.641 648.368 681.921 647.52 683.361 646.944C684.833 646.368 686.337 646.08 687.873 646.08C691.457 646.08 694.289 647.184 696.369 649.392C698.449 651.568 699.489 654.784 699.489 659.04C699.489 659.456 699.473 659.92 699.441 660.432C699.409 660.912 699.377 661.344 699.345 661.728H683.121C683.281 663.2 683.969 664.368 685.185 665.232C686.401 666.096 688.033 666.528 690.081 666.528C691.393 666.528 692.673 666.416 693.921 666.192C695.201 665.936 696.241 665.632 697.041 665.28L698.001 671.088C697.617 671.28 697.105 671.472 696.465 671.664C695.825 671.856 695.105 672.016 694.305 672.144C693.537 672.304 692.705 672.432 691.809 672.528C690.913 672.624 690.017 672.672 689.121 672.672C686.849 672.672 684.865 672.336 683.169 671.664C681.505 670.992 680.113 670.08 678.993 668.928C677.905 667.744 677.089 666.352 676.545 664.752C676.033 663.152 675.777 661.424 675.777 659.568ZM692.577 656.832C692.545 656.224 692.433 655.632 692.241 655.056C692.081 654.48 691.809 653.968 691.425 653.52C691.073 653.072 690.609 652.704 690.033 652.416C689.489 652.128 688.801 651.984 687.969 651.984C687.169 651.984 686.481 652.128 685.905 652.416C685.329 652.672 684.849 653.024 684.465 653.472C684.081 653.92 683.777 654.448 683.553 655.056C683.361 655.632 683.217 656.224 683.121 656.832H692.577ZM716.3 640.464L723.452 639.312V646.752H732.044V652.704H723.452V661.584C723.452 663.088 723.708 664.288 724.22 665.184C724.764 666.08 725.836 666.528 727.436 666.528C728.204 666.528 728.988 666.464 729.788 666.336C730.62 666.176 731.372 665.968 732.044 665.712L733.052 671.28C732.188 671.632 731.228 671.936 730.172 672.192C729.116 672.448 727.82 672.576 726.284 672.576C724.332 672.576 722.716 672.32 721.436 671.808C720.156 671.264 719.132 670.528 718.364 669.6C717.596 668.64 717.052 667.488 716.732 666.144C716.444 664.8 716.3 663.312 716.3 661.68V640.464ZM760.546 659.328C760.546 661.312 760.258 663.136 759.682 664.8C759.106 666.432 758.274 667.84 757.186 669.024C756.098 670.176 754.786 671.072 753.25 671.712C751.746 672.352 750.05 672.672 748.162 672.672C746.306 672.672 744.61 672.352 743.074 671.712C741.57 671.072 740.274 670.176 739.186 669.024C738.098 667.84 737.25 666.432 736.642 664.8C736.034 663.136 735.73 661.312 735.73 659.328C735.73 657.344 736.034 655.536 736.642 653.904C737.282 652.272 738.146 650.88 739.234 649.728C740.354 648.576 741.666 647.68 743.17 647.04C744.706 646.4 746.37 646.08 748.162 646.08C749.986 646.08 751.65 646.4 753.154 647.04C754.69 647.68 756.002 648.576 757.09 649.728C758.178 650.88 759.026 652.272 759.634 653.904C760.242 655.536 760.546 657.344 760.546 659.328ZM753.25 659.328C753.25 657.12 752.802 655.392 751.906 654.144C751.042 652.864 749.794 652.224 748.162 652.224C746.53 652.224 745.266 652.864 744.37 654.144C743.474 655.392 743.026 657.12 743.026 659.328C743.026 661.536 743.474 663.296 744.37 664.608C745.266 665.888 746.53 666.528 748.162 666.528C749.794 666.528 751.042 665.888 751.906 664.608C752.802 663.296 753.25 661.536 753.25 659.328ZM784.866 666.864C786.178 666.864 787.106 666.736 787.65 666.48C788.194 666.224 788.466 665.728 788.466 664.992C788.466 664.416 788.114 663.92 787.41 663.504C786.706 663.056 785.634 662.56 784.194 662.016C783.074 661.6 782.05 661.168 781.122 660.72C780.226 660.272 779.458 659.744 778.818 659.136C778.178 658.496 777.682 657.744 777.33 656.88C776.978 656.016 776.802 654.976 776.802 653.76C776.802 651.392 777.682 649.52 779.442 648.144C781.202 646.768 783.618 646.08 786.69 646.08C788.226 646.08 789.698 646.224 791.106 646.512C792.514 646.768 793.634 647.056 794.466 647.376L793.218 652.944C792.386 652.656 791.474 652.4 790.482 652.176C789.522 651.952 788.434 651.84 787.218 651.84C784.978 651.84 783.858 652.464 783.858 653.712C783.858 654 783.906 654.256 784.002 654.48C784.098 654.704 784.29 654.928 784.578 655.152C784.866 655.344 785.25 655.568 785.73 655.824C786.242 656.048 786.882 656.304 787.65 656.592C789.218 657.168 790.514 657.744 791.538 658.32C792.562 658.864 793.362 659.472 793.938 660.144C794.546 660.784 794.962 661.504 795.186 662.304C795.442 663.104 795.57 664.032 795.57 665.088C795.57 667.584 794.626 669.472 792.738 670.752C790.882 672.032 788.242 672.672 784.818 672.672C782.578 672.672 780.706 672.48 779.202 672.096C777.73 671.712 776.706 671.392 776.13 671.136L777.33 665.328C778.546 665.808 779.794 666.192 781.074 666.48C782.354 666.736 783.618 666.864 784.866 666.864ZM810.563 667.008C811.267 667.008 811.939 666.992 812.579 666.96C813.219 666.928 813.731 666.88 814.115 666.816V661.392C813.827 661.328 813.395 661.264 812.819 661.2C812.243 661.136 811.715 661.104 811.235 661.104C810.563 661.104 809.923 661.152 809.315 661.248C808.739 661.312 808.227 661.456 807.779 661.68C807.331 661.904 806.979 662.208 806.723 662.592C806.467 662.976 806.339 663.456 806.339 664.032C806.339 665.152 806.707 665.936 807.443 666.384C808.211 666.8 809.251 667.008 810.563 667.008ZM809.987 646.08C812.099 646.08 813.859 646.32 815.267 646.8C816.675 647.28 817.795 647.968 818.627 648.864C819.491 649.76 820.099 650.848 820.451 652.128C820.803 653.408 820.979 654.832 820.979 656.4V671.28C819.955 671.504 818.531 671.76 816.707 672.048C814.883 672.368 812.675 672.528 810.083 672.528C808.451 672.528 806.963 672.384 805.619 672.096C804.307 671.808 803.171 671.344 802.211 670.704C801.251 670.032 800.515 669.168 800.003 668.112C799.491 667.056 799.235 665.76 799.235 664.224C799.235 662.752 799.523 661.504 800.099 660.48C800.707 659.456 801.507 658.64 802.499 658.032C803.491 657.424 804.627 656.992 805.907 656.736C807.187 656.448 808.515 656.304 809.891 656.304C810.819 656.304 811.635 656.352 812.339 656.448C813.075 656.512 813.667 656.608 814.115 656.736V656.064C814.115 654.848 813.747 653.872 813.011 653.136C812.275 652.4 810.995 652.032 809.171 652.032C807.955 652.032 806.755 652.128 805.571 652.32C804.387 652.48 803.363 652.72 802.499 653.04L801.587 647.28C802.003 647.152 802.515 647.024 803.123 646.896C803.763 646.736 804.451 646.608 805.187 646.512C805.923 646.384 806.691 646.288 807.491 646.224C808.323 646.128 809.155 646.08 809.987 646.08ZM833.701 672C832.069 668.8 830.405 665.056 828.709 660.768C827.045 656.48 825.461 651.808 823.957 646.752H831.541C831.861 648 832.229 649.36 832.645 650.832C833.093 652.272 833.541 653.744 833.989 655.248C834.469 656.72 834.933 658.16 835.381 659.568C835.861 660.976 836.325 662.256 836.773 663.408C837.189 662.256 837.637 660.976 838.117 659.568C838.597 658.16 839.061 656.72 839.509 655.248C839.989 653.744 840.437 652.272 840.853 650.832C841.301 649.36 841.685 648 842.005 646.752H849.397C847.893 651.808 846.293 656.48 844.597 660.768C842.933 665.056 841.285 668.8 839.653 672H833.701ZM851.371 659.568C851.371 657.328 851.707 655.376 852.379 653.712C853.083 652.016 853.995 650.608 855.115 649.488C856.235 648.368 857.515 647.52 858.955 646.944C860.427 646.368 861.931 646.08 863.467 646.08C867.051 646.08 869.883 647.184 871.963 649.392C874.043 651.568 875.083 654.784 875.083 659.04C875.083 659.456 875.067 659.92 875.035 660.432C875.003 660.912 874.971 661.344 874.939 661.728H858.715C858.875 663.2 859.563 664.368 860.779 665.232C861.995 666.096 863.627 666.528 865.675 666.528C866.987 666.528 868.267 666.416 869.515 666.192C870.795 665.936 871.835 665.632 872.635 665.28L873.595 671.088C873.211 671.28 872.699 671.472 872.059 671.664C871.419 671.856 870.699 672.016 869.899 672.144C869.131 672.304 868.299 672.432 867.403 672.528C866.507 672.624 865.611 672.672 864.715 672.672C862.443 672.672 860.459 672.336 858.763 671.664C857.099 670.992 855.707 670.08 854.587 668.928C853.499 667.744 852.683 666.352 852.139 664.752C851.627 663.152 851.371 661.424 851.371 659.568ZM868.171 656.832C868.139 656.224 868.027 655.632 867.835 655.056C867.675 654.48 867.403 653.968 867.019 653.52C866.667 653.072 866.203 652.704 865.627 652.416C865.083 652.128 864.395 651.984 863.563 651.984C862.763 651.984 862.075 652.128 861.499 652.416C860.923 652.672 860.443 653.024 860.059 653.472C859.675 653.92 859.371 654.448 859.147 655.056C858.955 655.632 858.811 656.224 858.715 656.832H868.171ZM914.549 646.752C913.109 651.616 911.605 656.176 910.037 660.432C908.469 664.688 906.757 668.816 904.901 672.816C904.229 674.256 903.557 675.472 902.885 676.464C902.213 677.488 901.477 678.32 900.677 678.96C899.877 679.632 898.965 680.112 897.941 680.4C896.949 680.72 895.781 680.88 894.437 680.88C893.317 680.88 892.277 680.768 891.317 680.544C890.389 680.352 889.621 680.128 889.013 679.872L890.261 674.16C890.997 674.416 891.653 674.592 892.229 674.688C892.805 674.784 893.413 674.832 894.053 674.832C895.333 674.832 896.309 674.48 896.981 673.776C897.685 673.104 898.277 672.16 898.757 670.944C897.125 667.744 895.493 664.16 893.861 660.192C892.229 656.192 890.693 651.712 889.253 646.752H896.837C897.157 648 897.525 649.36 897.941 650.832C898.389 652.272 898.853 653.744 899.333 655.248C899.813 656.72 900.293 658.16 900.773 659.568C901.285 660.976 901.765 662.256 902.213 663.408C902.629 662.256 903.061 660.976 903.509 659.568C903.957 658.16 904.389 656.72 904.805 655.248C905.253 653.744 905.669 652.272 906.053 650.832C906.469 649.36 906.837 648 907.157 646.752H914.549ZM941.343 659.328C941.343 661.312 941.055 663.136 940.479 664.8C939.903 666.432 939.071 667.84 937.983 669.024C936.895 670.176 935.583 671.072 934.047 671.712C932.543 672.352 930.847 672.672 928.959 672.672C927.103 672.672 925.407 672.352 923.871 671.712C922.367 671.072 921.071 670.176 919.983 669.024C918.895 667.84 918.047 666.432 917.439 664.8C916.831 663.136 916.527 661.312 916.527 659.328C916.527 657.344 916.831 655.536 917.439 653.904C918.079 652.272 918.943 650.88 920.031 649.728C921.151 648.576 922.463 647.68 923.967 647.04C925.503 646.4 927.167 646.08 928.959 646.08C930.783 646.08 932.447 646.4 933.951 647.04C935.487 647.68 936.799 648.576 937.887 649.728C938.975 650.88 939.823 652.272 940.431 653.904C941.039 655.536 941.343 657.344 941.343 659.328ZM934.047 659.328C934.047 657.12 933.599 655.392 932.703 654.144C931.839 652.864 930.591 652.224 928.959 652.224C927.327 652.224 926.063 652.864 925.167 654.144C924.271 655.392 923.823 657.12 923.823 659.328C923.823 661.536 924.271 663.296 925.167 664.608C926.063 665.888 927.327 666.528 928.959 666.528C930.591 666.528 931.839 665.888 932.703 664.608C933.599 663.296 934.047 661.536 934.047 659.328ZM968.435 671.136C967.219 671.488 965.651 671.808 963.731 672.096C961.811 672.416 959.795 672.576 957.683 672.576C955.539 672.576 953.747 672.288 952.307 671.712C950.899 671.136 949.779 670.336 948.947 669.312C948.115 668.256 947.523 667.008 947.171 665.568C946.819 664.128 946.643 662.544 946.643 660.816V646.752H953.795V659.952C953.795 662.256 954.099 663.92 954.707 664.944C955.315 665.968 956.451 666.48 958.115 666.48C958.627 666.48 959.171 666.464 959.747 666.432C960.323 666.368 960.835 666.304 961.283 666.24V646.752H968.435V671.136ZM990.365 653.088C989.725 652.928 988.973 652.768 988.109 652.608C987.245 652.416 986.317 652.32 985.325 652.32C984.877 652.32 984.333 652.368 983.693 652.464C983.085 652.528 982.621 652.608 982.301 652.704V672H975.149V648.096C976.429 647.648 977.933 647.232 979.661 646.848C981.421 646.432 983.373 646.224 985.517 646.224C985.901 646.224 986.365 646.256 986.909 646.32C987.453 646.352 987.997 646.416 988.541 646.512C989.085 646.576 989.629 646.672 990.173 646.8C990.717 646.896 991.181 647.024 991.565 647.184L990.365 653.088ZM1013.03 659.184C1013.03 661.392 1013.52 663.168 1014.51 664.512C1015.51 665.856 1016.98 666.528 1018.93 666.528C1019.57 666.528 1020.16 666.512 1020.71 666.48C1021.25 666.416 1021.7 666.352 1022.05 666.288V653.28C1021.6 652.992 1021.01 652.752 1020.27 652.56C1019.57 652.368 1018.85 652.272 1018.11 652.272C1014.72 652.272 1013.03 654.576 1013.03 659.184ZM1029.2 671.184C1028.56 671.376 1027.83 671.568 1026.99 671.76C1026.16 671.92 1025.28 672.064 1024.35 672.192C1023.46 672.32 1022.53 672.416 1021.57 672.48C1020.64 672.576 1019.75 672.624 1018.88 672.624C1016.8 672.624 1014.95 672.32 1013.31 671.712C1011.68 671.104 1010.31 670.24 1009.19 669.12C1008.07 667.968 1007.2 666.592 1006.59 664.992C1006.02 663.36 1005.73 661.536 1005.73 659.52C1005.73 657.472 1005.99 655.632 1006.5 654C1007.01 652.336 1007.75 650.928 1008.71 649.776C1009.67 648.624 1010.83 647.744 1012.21 647.136C1013.62 646.528 1015.22 646.224 1017.01 646.224C1018 646.224 1018.88 646.32 1019.65 646.512C1020.45 646.704 1021.25 646.976 1022.05 647.328V635.904L1029.2 634.752V671.184ZM1045.55 667.008C1046.25 667.008 1046.92 666.992 1047.56 666.96C1048.2 666.928 1048.72 666.88 1049.1 666.816V661.392C1048.81 661.328 1048.38 661.264 1047.8 661.2C1047.23 661.136 1046.7 661.104 1046.22 661.104C1045.55 661.104 1044.91 661.152 1044.3 661.248C1043.72 661.312 1043.21 661.456 1042.76 661.68C1042.32 661.904 1041.96 662.208 1041.71 662.592C1041.45 662.976 1041.32 663.456 1041.32 664.032C1041.32 665.152 1041.69 665.936 1042.43 666.384C1043.2 666.8 1044.24 667.008 1045.55 667.008ZM1044.97 646.08C1047.08 646.08 1048.84 646.32 1050.25 646.8C1051.66 647.28 1052.78 647.968 1053.61 648.864C1054.48 649.76 1055.08 650.848 1055.44 652.128C1055.79 653.408 1055.96 654.832 1055.96 656.4V671.28C1054.94 671.504 1053.52 671.76 1051.69 672.048C1049.87 672.368 1047.66 672.528 1045.07 672.528C1043.44 672.528 1041.95 672.384 1040.6 672.096C1039.29 671.808 1038.16 671.344 1037.2 670.704C1036.24 670.032 1035.5 669.168 1034.99 668.112C1034.48 667.056 1034.22 665.76 1034.22 664.224C1034.22 662.752 1034.51 661.504 1035.08 660.48C1035.69 659.456 1036.49 658.64 1037.48 658.032C1038.48 657.424 1039.61 656.992 1040.89 656.736C1042.17 656.448 1043.5 656.304 1044.88 656.304C1045.8 656.304 1046.62 656.352 1047.32 656.448C1048.06 656.512 1048.65 656.608 1049.1 656.736V656.064C1049.1 654.848 1048.73 653.872 1048 653.136C1047.26 652.4 1045.98 652.032 1044.16 652.032C1042.94 652.032 1041.74 652.128 1040.56 652.32C1039.37 652.48 1038.35 652.72 1037.48 653.04L1036.57 647.28C1036.99 647.152 1037.5 647.024 1038.11 646.896C1038.75 646.736 1039.44 646.608 1040.17 646.512C1040.91 646.384 1041.68 646.288 1042.48 646.224C1043.31 646.128 1044.14 646.08 1044.97 646.08ZM1084.24 646.752C1082.8 651.616 1081.29 656.176 1079.72 660.432C1078.16 664.688 1076.44 668.816 1074.59 672.816C1073.92 674.256 1073.24 675.472 1072.57 676.464C1071.9 677.488 1071.16 678.32 1070.36 678.96C1069.56 679.632 1068.65 680.112 1067.63 680.4C1066.64 680.72 1065.47 680.88 1064.12 680.88C1063 680.88 1061.96 680.768 1061 680.544C1060.08 680.352 1059.31 680.128 1058.7 679.872L1059.95 674.16C1060.68 674.416 1061.34 674.592 1061.92 674.688C1062.49 674.784 1063.1 674.832 1063.74 674.832C1065.02 674.832 1066 674.48 1066.67 673.776C1067.37 673.104 1067.96 672.16 1068.44 670.944C1066.81 667.744 1065.18 664.16 1063.55 660.192C1061.92 656.192 1060.38 651.712 1058.94 646.752H1066.52C1066.84 648 1067.21 649.36 1067.63 650.832C1068.08 652.272 1068.54 653.744 1069.02 655.248C1069.5 656.72 1069.98 658.16 1070.46 659.568C1070.97 660.976 1071.45 662.256 1071.9 663.408C1072.32 662.256 1072.75 660.976 1073.2 659.568C1073.64 658.16 1074.08 656.72 1074.49 655.248C1074.94 653.744 1075.36 652.272 1075.74 650.832C1076.16 649.36 1076.52 648 1076.84 646.752H1084.24ZM1106.61 668.208C1106.61 669.648 1106.15 670.752 1105.22 671.52C1104.32 672.256 1103.3 672.624 1102.15 672.624C1100.99 672.624 1099.95 672.256 1099.03 671.52C1098.13 670.752 1097.68 669.648 1097.68 668.208C1097.68 666.768 1098.13 665.68 1099.03 664.944C1099.95 664.176 1100.99 663.792 1102.15 663.792C1103.3 663.792 1104.32 664.176 1105.22 664.944C1106.15 665.68 1106.61 666.768 1106.61 668.208ZM358.223 697.288C358.607 698.6 359.023 700.088 359.471 701.752C359.951 703.384 360.447 705.08 360.959 706.84C361.503 708.6 362.047 710.36 362.591 712.12C363.135 713.88 363.663 715.512 364.175 717.016C364.591 715.384 365.007 713.608 365.423 711.688C365.871 709.768 366.287 707.784 366.671 705.736C367.055 703.688 367.423 701.656 367.775 699.64C368.159 697.592 368.511 695.624 368.831 693.736H376.607C375.487 699.304 374.191 704.952 372.719 710.68C371.279 716.408 369.711 721.848 368.015 727H361.151C360.031 723.928 358.943 720.712 357.887 717.352C356.831 713.96 355.791 710.568 354.767 707.176C353.743 710.568 352.719 713.96 351.695 717.352C350.671 720.712 349.599 723.928 348.479 727H341.615C339.919 721.848 338.335 716.408 336.863 710.68C335.423 704.952 334.143 699.304 333.023 693.736H341.135C341.455 695.624 341.807 697.592 342.191 699.64C342.575 701.656 342.975 703.688 343.391 705.736C343.807 707.784 344.223 709.768 344.639 711.688C345.087 713.608 345.535 715.384 345.983 717.016C346.559 715.448 347.119 713.784 347.663 712.024C348.207 710.264 348.735 708.504 349.247 706.744C349.759 704.984 350.223 703.288 350.639 701.656C351.087 700.024 351.487 698.568 351.839 697.288H358.223ZM378.144 714.568C378.144 712.328 378.48 710.376 379.152 708.712C379.856 707.016 380.768 705.608 381.888 704.488C383.008 703.368 384.288 702.52 385.728 701.944C387.2 701.368 388.704 701.08 390.24 701.08C393.824 701.08 396.656 702.184 398.736 704.392C400.816 706.568 401.856 709.784 401.856 714.04C401.856 714.456 401.84 714.92 401.808 715.432C401.776 715.912 401.744 716.344 401.712 716.728H385.488C385.648 718.2 386.336 719.368 387.552 720.232C388.768 721.096 390.4 721.528 392.448 721.528C393.76 721.528 395.04 721.416 396.288 721.192C397.568 720.936 398.608 720.632 399.408 720.28L400.368 726.088C399.984 726.28 399.472 726.472 398.832 726.664C398.192 726.856 397.472 727.016 396.672 727.144C395.904 727.304 395.072 727.432 394.176 727.528C393.28 727.624 392.384 727.672 391.488 727.672C389.216 727.672 387.232 727.336 385.536 726.664C383.872 725.992 382.48 725.08 381.36 723.928C380.272 722.744 379.456 721.352 378.912 719.752C378.4 718.152 378.144 716.424 378.144 714.568ZM394.944 711.832C394.912 711.224 394.8 710.632 394.608 710.056C394.448 709.48 394.176 708.968 393.792 708.52C393.44 708.072 392.976 707.704 392.4 707.416C391.856 707.128 391.168 706.984 390.336 706.984C389.536 706.984 388.848 707.128 388.272 707.416C387.696 707.672 387.216 708.024 386.832 708.472C386.448 708.92 386.144 709.448 385.92 710.056C385.728 710.632 385.584 711.224 385.488 711.832H394.944ZM425.003 713.56C425.003 717.56 426.619 719.56 429.851 719.56C430.587 719.56 431.275 719.464 431.915 719.272C432.555 719.08 433.099 718.856 433.547 718.6V707.176C433.195 707.112 432.779 707.064 432.299 707.032C431.819 706.968 431.259 706.936 430.619 706.936C428.731 706.936 427.323 707.56 426.395 708.808C425.467 710.056 425.003 711.64 425.003 713.56ZM440.699 723.832C440.699 727.96 439.643 731.016 437.531 733C435.451 735.016 432.219 736.024 427.835 736.024C426.299 736.024 424.763 735.88 423.227 735.592C421.691 735.336 420.267 734.984 418.955 734.536L420.203 728.536C421.323 728.984 422.491 729.336 423.707 729.592C424.955 729.848 426.363 729.976 427.931 729.976C429.979 729.976 431.419 729.528 432.251 728.632C433.115 727.736 433.547 726.584 433.547 725.176V724.264C432.779 724.616 431.979 724.888 431.147 725.08C430.347 725.24 429.467 725.32 428.507 725.32C425.019 725.32 422.347 724.296 420.491 722.248C418.635 720.168 417.707 717.272 417.707 713.56C417.707 711.704 417.995 710.024 418.571 708.52C419.147 706.984 419.979 705.672 421.067 704.584C422.187 703.496 423.547 702.664 425.147 702.088C426.747 701.48 428.555 701.176 430.571 701.176C431.435 701.176 432.315 701.224 433.211 701.32C434.139 701.384 435.051 701.48 435.947 701.608C436.843 701.736 437.691 701.896 438.491 702.088C439.323 702.248 440.059 702.424 440.699 702.616V723.832ZM471.023 714.328C471.023 716.312 470.735 718.136 470.159 719.8C469.583 721.432 468.751 722.84 467.663 724.024C466.575 725.176 465.263 726.072 463.727 726.712C462.223 727.352 460.527 727.672 458.639 727.672C456.783 727.672 455.087 727.352 453.551 726.712C452.047 726.072 450.751 725.176 449.663 724.024C448.575 722.84 447.727 721.432 447.119 719.8C446.511 718.136 446.207 716.312 446.207 714.328C446.207 712.344 446.511 710.536 447.119 708.904C447.759 707.272 448.623 705.88 449.711 704.728C450.831 703.576 452.143 702.68 453.647 702.04C455.183 701.4 456.847 701.08 458.639 701.08C460.463 701.08 462.127 701.4 463.631 702.04C465.167 702.68 466.479 703.576 467.567 704.728C468.655 705.88 469.503 707.272 470.111 708.904C470.719 710.536 471.023 712.344 471.023 714.328ZM463.727 714.328C463.727 712.12 463.279 710.392 462.383 709.144C461.519 707.864 460.271 707.224 458.639 707.224C457.007 707.224 455.743 707.864 454.847 709.144C453.951 710.392 453.503 712.12 453.503 714.328C453.503 716.536 453.951 718.296 454.847 719.608C455.743 720.888 457.007 721.528 458.639 721.528C460.271 721.528 461.519 720.888 462.383 719.608C463.279 718.296 463.727 716.536 463.727 714.328ZM476.323 695.464L483.475 694.312V701.752H492.067V707.704H483.475V716.584C483.475 718.088 483.731 719.288 484.243 720.184C484.787 721.08 485.859 721.528 487.459 721.528C488.227 721.528 489.011 721.464 489.811 721.336C490.643 721.176 491.395 720.968 492.067 720.712L493.075 726.28C492.211 726.632 491.251 726.936 490.195 727.192C489.139 727.448 487.843 727.576 486.307 727.576C484.355 727.576 482.739 727.32 481.459 726.808C480.179 726.264 479.155 725.528 478.387 724.6C477.619 723.64 477.075 722.488 476.755 721.144C476.467 719.8 476.323 718.312 476.323 716.68V695.464ZM531.839 701.752C530.399 706.616 528.895 711.176 527.327 715.432C525.759 719.688 524.047 723.816 522.191 727.816C521.519 729.256 520.847 730.472 520.174 731.464C519.503 732.488 518.767 733.32 517.967 733.96C517.167 734.632 516.255 735.112 515.231 735.4C514.239 735.72 513.071 735.88 511.727 735.88C510.607 735.88 509.567 735.768 508.607 735.544C507.679 735.352 506.911 735.128 506.303 734.872L507.551 729.16C508.287 729.416 508.943 729.592 509.519 729.688C510.095 729.784 510.703 729.832 511.343 729.832C512.623 729.832 513.599 729.48 514.271 728.776C514.975 728.104 515.567 727.16 516.047 725.944C514.415 722.744 512.783 719.16 511.151 715.192C509.519 711.192 507.983 706.712 506.543 701.752H514.127C514.447 703 514.815 704.36 515.231 705.832C515.679 707.272 516.143 708.744 516.623 710.248C517.103 711.72 517.583 713.16 518.062 714.568C518.575 715.976 519.055 717.256 519.503 718.408C519.919 717.256 520.351 715.976 520.799 714.568C521.247 713.16 521.679 711.72 522.095 710.248C522.543 708.744 522.959 707.272 523.343 705.832C523.759 704.36 524.127 703 524.447 701.752H531.839ZM558.632 714.328C558.632 716.312 558.344 718.136 557.768 719.8C557.192 721.432 556.36 722.84 555.272 724.024C554.184 725.176 552.872 726.072 551.336 726.712C549.832 727.352 548.136 727.672 546.248 727.672C544.392 727.672 542.696 727.352 541.16 726.712C539.656 726.072 538.36 725.176 537.272 724.024C536.184 722.84 535.336 721.432 534.728 719.8C534.12 718.136 533.816 716.312 533.816 714.328C533.816 712.344 534.12 710.536 534.728 708.904C535.368 707.272 536.232 705.88 537.32 704.728C538.44 703.576 539.752 702.68 541.256 702.04C542.792 701.4 544.456 701.08 546.248 701.08C548.072 701.08 549.736 701.4 551.24 702.04C552.776 702.68 554.088 703.576 555.176 704.728C556.264 705.88 557.112 707.272 557.72 708.904C558.328 710.536 558.632 712.344 558.632 714.328ZM551.336 714.328C551.336 712.12 550.888 710.392 549.992 709.144C549.128 707.864 547.88 707.224 546.248 707.224C544.616 707.224 543.352 707.864 542.456 709.144C541.56 710.392 541.112 712.12 541.112 714.328C541.112 716.536 541.56 718.296 542.456 719.608C543.352 720.888 544.616 721.528 546.248 721.528C547.88 721.528 549.128 720.888 549.992 719.608C550.888 718.296 551.336 716.536 551.336 714.328ZM585.725 726.136C584.509 726.488 582.941 726.808 581.021 727.096C579.101 727.416 577.085 727.576 574.973 727.576C572.829 727.576 571.037 727.288 569.597 726.712C568.189 726.136 567.069 725.336 566.237 724.312C565.405 723.256 564.813 722.008 564.461 720.568C564.109 719.128 563.933 717.544 563.933 715.816V701.752H571.085V714.952C571.085 717.256 571.389 718.92 571.997 719.944C572.605 720.968 573.741 721.48 575.405 721.48C575.917 721.48 576.461 721.464 577.037 721.432C577.613 721.368 578.125 721.304 578.573 721.24V701.752H585.725V726.136ZM602.769 714.376C602.769 712.552 603.057 710.84 603.633 709.24C604.241 707.608 605.105 706.2 606.225 705.016C607.345 703.8 608.705 702.84 610.305 702.136C611.905 701.432 613.729 701.08 615.777 701.08C617.121 701.08 618.353 701.208 619.473 701.464C620.593 701.688 621.681 702.024 622.737 702.472L621.249 708.184C620.577 707.928 619.841 707.704 619.041 707.512C618.241 707.32 617.345 707.224 616.353 707.224C614.241 707.224 612.657 707.88 611.601 709.192C610.577 710.504 610.065 712.232 610.065 714.376C610.065 716.648 610.545 718.408 611.505 719.656C612.497 720.904 614.209 721.528 616.641 721.528C617.505 721.528 618.433 721.448 619.425 721.288C620.417 721.128 621.329 720.872 622.161 720.52L623.169 726.376C622.337 726.728 621.297 727.032 620.049 727.288C618.801 727.544 617.425 727.672 615.921 727.672C613.617 727.672 611.633 727.336 609.969 726.664C608.305 725.96 606.929 725.016 605.841 723.832C604.785 722.648 604.001 721.256 603.489 719.656C603.009 718.024 602.769 716.264 602.769 714.376ZM650.367 714.328C650.367 716.312 650.079 718.136 649.503 719.8C648.927 721.432 648.095 722.84 647.007 724.024C645.919 725.176 644.607 726.072 643.071 726.712C641.567 727.352 639.871 727.672 637.983 727.672C636.127 727.672 634.431 727.352 632.895 726.712C631.391 726.072 630.095 725.176 629.007 724.024C627.919 722.84 627.071 721.432 626.463 719.8C625.855 718.136 625.551 716.312 625.551 714.328C625.551 712.344 625.855 710.536 626.463 708.904C627.103 707.272 627.967 705.88 629.055 704.728C630.175 703.576 631.487 702.68 632.991 702.04C634.527 701.4 636.191 701.08 637.983 701.08C639.807 701.08 641.471 701.4 642.975 702.04C644.511 702.68 645.823 703.576 646.911 704.728C647.999 705.88 648.847 707.272 649.455 708.904C650.063 710.536 650.367 712.344 650.367 714.328ZM643.071 714.328C643.071 712.12 642.623 710.392 641.727 709.144C640.863 707.864 639.615 707.224 637.983 707.224C636.351 707.224 635.087 707.864 634.191 709.144C633.295 710.392 632.847 712.12 632.847 714.328C632.847 716.536 633.295 718.296 634.191 719.608C635.087 720.888 636.351 721.528 637.983 721.528C639.615 721.528 640.863 720.888 641.727 719.608C642.623 718.296 643.071 716.536 643.071 714.328ZM662.115 727C660.483 723.8 658.819 720.056 657.123 715.768C655.459 711.48 653.875 706.808 652.371 701.752H659.955C660.275 703 660.643 704.36 661.059 705.832C661.507 707.272 661.955 708.744 662.403 710.248C662.883 711.72 663.347 713.16 663.795 714.568C664.275 715.976 664.739 717.256 665.187 718.408C665.603 717.256 666.051 715.976 666.531 714.568C667.011 713.16 667.475 711.72 667.923 710.248C668.403 708.744 668.851 707.272 669.267 705.832C669.715 704.36 670.099 703 670.419 701.752H677.811C676.307 706.808 674.707 711.48 673.011 715.768C671.347 720.056 669.699 723.8 668.067 727H662.115ZM679.785 714.568C679.785 712.328 680.121 710.376 680.793 708.712C681.497 707.016 682.409 705.608 683.529 704.488C684.649 703.368 685.929 702.52 687.369 701.944C688.841 701.368 690.345 701.08 691.881 701.08C695.465 701.08 698.297 702.184 700.377 704.392C702.457 706.568 703.497 709.784 703.497 714.04C703.497 714.456 703.481 714.92 703.449 715.432C703.417 715.912 703.385 716.344 703.353 716.728H687.129C687.289 718.2 687.977 719.368 689.193 720.232C690.409 721.096 692.041 721.528 694.089 721.528C695.401 721.528 696.681 721.416 697.929 721.192C699.209 720.936 700.249 720.632 701.049 720.28L702.009 726.088C701.625 726.28 701.113 726.472 700.473 726.664C699.833 726.856 699.113 727.016 698.313 727.144C697.545 727.304 696.713 727.432 695.817 727.528C694.921 727.624 694.025 727.672 693.129 727.672C690.857 727.672 688.873 727.336 687.177 726.664C685.513 725.992 684.121 725.08 683.001 723.928C681.913 722.744 681.097 721.352 680.553 719.752C680.041 718.152 679.785 716.424 679.785 714.568ZM696.585 711.832C696.553 711.224 696.441 710.632 696.249 710.056C696.089 709.48 695.817 708.968 695.433 708.52C695.081 708.072 694.617 707.704 694.041 707.416C693.497 707.128 692.809 706.984 691.977 706.984C691.177 706.984 690.489 707.128 689.913 707.416C689.337 707.672 688.857 708.024 688.473 708.472C688.089 708.92 687.785 709.448 687.561 710.056C687.369 710.632 687.225 711.224 687.129 711.832H696.585ZM724.232 708.088C723.592 707.928 722.84 707.768 721.976 707.608C721.112 707.416 720.184 707.32 719.192 707.32C718.744 707.32 718.2 707.368 717.56 707.464C716.952 707.528 716.488 707.608 716.168 707.704V727H709.016V703.096C710.296 702.648 711.8 702.232 713.528 701.848C715.288 701.432 717.24 701.224 719.384 701.224C719.768 701.224 720.232 701.256 720.776 701.32C721.32 701.352 721.864 701.416 722.408 701.512C722.952 701.576 723.496 701.672 724.04 701.8C724.584 701.896 725.048 702.024 725.432 702.184L724.232 708.088ZM727.598 714.568C727.598 712.328 727.934 710.376 728.605 708.712C729.31 707.016 730.222 705.608 731.342 704.488C732.462 703.368 733.742 702.52 735.182 701.944C736.654 701.368 738.158 701.08 739.694 701.08C743.278 701.08 746.11 702.184 748.19 704.392C750.27 706.568 751.31 709.784 751.31 714.04C751.31 714.456 751.294 714.92 751.262 715.432C751.23 715.912 751.198 716.344 751.166 716.728H734.942C735.102 718.2 735.79 719.368 737.006 720.232C738.222 721.096 739.854 721.528 741.902 721.528C743.214 721.528 744.494 721.416 745.742 721.192C747.022 720.936 748.062 720.632 748.862 720.28L749.822 726.088C749.438 726.28 748.926 726.472 748.286 726.664C747.646 726.856 746.926 727.016 746.126 727.144C745.358 727.304 744.526 727.432 743.63 727.528C742.734 727.624 741.838 727.672 740.942 727.672C738.67 727.672 736.686 727.336 734.99 726.664C733.326 725.992 731.934 725.08 730.814 723.928C729.726 722.744 728.91 721.352 728.366 719.752C727.854 718.152 727.598 716.424 727.598 714.568ZM744.398 711.832C744.366 711.224 744.254 710.632 744.062 710.056C743.902 709.48 743.63 708.968 743.246 708.52C742.894 708.072 742.43 707.704 741.854 707.416C741.31 707.128 740.622 706.984 739.79 706.984C738.99 706.984 738.302 707.128 737.726 707.416C737.15 707.672 736.67 708.024 736.286 708.472C735.902 708.92 735.598 709.448 735.374 710.056C735.182 710.632 735.038 711.224 734.942 711.832H744.398ZM762.925 714.184C762.925 716.392 763.421 718.168 764.413 719.512C765.405 720.856 766.877 721.528 768.829 721.528C769.469 721.528 770.061 721.512 770.605 721.48C771.149 721.416 771.597 721.352 771.949 721.288V708.28C771.501 707.992 770.909 707.752 770.173 707.56C769.469 707.368 768.749 707.272 768.013 707.272C764.621 707.272 762.925 709.576 762.925 714.184ZM779.101 726.184C778.461 726.376 777.725 726.568 776.893 726.76C776.061 726.92 775.181 727.064 774.253 727.192C773.357 727.32 772.429 727.416 771.469 727.48C770.541 727.576 769.645 727.624 768.781 727.624C766.701 727.624 764.845 727.32 763.213 726.712C761.581 726.104 760.205 725.24 759.085 724.12C757.965 722.968 757.101 721.592 756.493 719.992C755.917 718.36 755.629 716.536 755.629 714.52C755.629 712.472 755.885 710.632 756.397 709C756.909 707.336 757.645 705.928 758.605 704.776C759.565 703.624 760.733 702.744 762.109 702.136C763.517 701.528 765.117 701.224 766.909 701.224C767.901 701.224 768.781 701.32 769.549 701.512C770.349 701.704 771.149 701.976 771.949 702.328V690.904L779.101 689.752V726.184ZM811.201 713.608C811.201 711.304 810.897 709.672 810.289 708.712C809.713 707.752 808.705 707.272 807.265 707.272C806.817 707.272 806.353 707.304 805.873 707.368C805.393 707.4 804.929 707.448 804.481 707.512V727H797.329V702.616C797.937 702.456 798.641 702.296 799.441 702.136C800.273 701.944 801.137 701.784 802.033 701.656C802.961 701.496 803.905 701.384 804.865 701.32C805.825 701.224 806.769 701.176 807.697 701.176C809.521 701.176 810.993 701.416 812.113 701.896C813.265 702.344 814.209 702.888 814.945 703.528C815.969 702.792 817.137 702.216 818.449 701.8C819.793 701.384 821.025 701.176 822.145 701.176C824.161 701.176 825.809 701.464 827.089 702.04C828.401 702.584 829.441 703.368 830.209 704.392C830.977 705.416 831.505 706.632 831.793 708.04C832.081 709.448 832.225 711.016 832.225 712.744V727H825.073V713.608C825.073 711.304 824.769 709.672 824.161 708.712C823.585 707.752 822.577 707.272 821.137 707.272C820.753 707.272 820.209 707.368 819.505 707.56C818.833 707.752 818.273 707.992 817.825 708.28C818.049 709.016 818.193 709.8 818.257 710.632C818.321 711.432 818.353 712.296 818.353 713.224V727H811.201V713.608ZM848.367 722.008C849.071 722.008 849.743 721.992 850.383 721.96C851.023 721.928 851.535 721.88 851.919 721.816V716.392C851.631 716.328 851.199 716.264 850.623 716.2C850.047 716.136 849.519 716.104 849.039 716.104C848.367 716.104 847.727 716.152 847.119 716.248C846.543 716.312 846.031 716.456 845.583 716.68C845.135 716.904 844.783 717.208 844.527 717.592C844.271 717.976 844.143 718.456 844.143 719.032C844.143 720.152 844.511 720.936 845.247 721.384C846.015 721.8 847.055 722.008 848.367 722.008ZM847.791 701.08C849.903 701.08 851.663 701.32 853.071 701.8C854.479 702.28 855.599 702.968 856.431 703.864C857.295 704.76 857.903 705.848 858.255 707.128C858.607 708.408 858.783 709.832 858.783 711.4V726.28C857.759 726.504 856.335 726.76 854.511 727.048C852.687 727.368 850.479 727.528 847.887 727.528C846.255 727.528 844.767 727.384 843.423 727.096C842.111 726.808 840.975 726.344 840.015 725.704C839.055 725.032 838.319 724.168 837.807 723.112C837.295 722.056 837.039 720.76 837.039 719.224C837.039 717.752 837.327 716.504 837.903 715.48C838.511 714.456 839.311 713.64 840.303 713.032C841.295 712.424 842.431 711.992 843.711 711.736C844.991 711.448 846.319 711.304 847.695 711.304C848.623 711.304 849.439 711.352 850.143 711.448C850.879 711.512 851.471 711.608 851.919 711.736V711.064C851.919 709.848 851.551 708.872 850.815 708.136C850.079 707.4 848.799 707.032 846.975 707.032C845.759 707.032 844.559 707.128 843.375 707.32C842.191 707.48 841.167 707.72 840.303 708.04L839.391 702.28C839.807 702.152 840.319 702.024 840.927 701.896C841.567 701.736 842.255 701.608 842.991 701.512C843.727 701.384 844.495 701.288 845.295 701.224C846.127 701.128 846.959 701.08 847.791 701.08ZM865.011 695.464L872.163 694.312V701.752H880.755V707.704H872.163V716.584C872.163 718.088 872.419 719.288 872.931 720.184C873.475 721.08 874.547 721.528 876.147 721.528C876.915 721.528 877.699 721.464 878.499 721.336C879.331 721.176 880.083 720.968 880.755 720.712L881.763 726.28C880.899 726.632 879.939 726.936 878.883 727.192C877.827 727.448 876.531 727.576 874.995 727.576C873.043 727.576 871.427 727.32 870.147 726.808C868.867 726.264 867.843 725.528 867.075 724.6C866.307 723.64 865.763 722.488 865.443 721.144C865.155 719.8 865.011 718.312 865.011 716.68V695.464ZM884.441 714.568C884.441 712.328 884.777 710.376 885.449 708.712C886.153 707.016 887.065 705.608 888.185 704.488C889.305 703.368 890.585 702.52 892.025 701.944C893.497 701.368 895.001 701.08 896.537 701.08C900.121 701.08 902.953 702.184 905.033 704.392C907.113 706.568 908.153 709.784 908.153 714.04C908.153 714.456 908.137 714.92 908.105 715.432C908.073 715.912 908.041 716.344 908.009 716.728H891.785C891.945 718.2 892.633 719.368 893.849 720.232C895.065 721.096 896.697 721.528 898.745 721.528C900.057 721.528 901.337 721.416 902.585 721.192C903.865 720.936 904.905 720.632 905.705 720.28L906.665 726.088C906.281 726.28 905.769 726.472 905.129 726.664C904.489 726.856 903.769 727.016 902.969 727.144C902.201 727.304 901.369 727.432 900.473 727.528C899.577 727.624 898.681 727.672 897.785 727.672C895.513 727.672 893.529 727.336 891.833 726.664C890.169 725.992 888.777 725.08 887.657 723.928C886.569 722.744 885.753 721.352 885.209 719.752C884.697 718.152 884.441 716.424 884.441 714.568ZM901.241 711.832C901.209 711.224 901.097 710.632 900.905 710.056C900.745 709.48 900.473 708.968 900.089 708.52C899.737 708.072 899.273 707.704 898.697 707.416C898.153 707.128 897.465 706.984 896.633 706.984C895.833 706.984 895.145 707.128 894.569 707.416C893.993 707.672 893.513 708.024 893.129 708.472C892.745 708.92 892.441 709.448 892.217 710.056C892.025 710.632 891.881 711.224 891.785 711.832H901.241ZM932.548 702.328C932.548 704.92 932.452 707.336 932.26 709.576C932.068 711.816 931.812 714.088 931.492 716.392H926.02C925.7 714.088 925.428 711.816 925.204 709.576C925.012 707.336 924.916 704.92 924.916 702.328V693.736H932.548V702.328ZM933.172 723.208C933.172 724.616 932.708 725.704 931.78 726.472C930.884 727.24 929.86 727.624 928.708 727.624C927.556 727.624 926.516 727.24 925.588 726.472C924.692 725.704 924.244 724.616 924.244 723.208C924.244 721.8 924.692 720.712 925.588 719.944C926.516 719.176 927.556 718.792 928.708 718.792C929.86 718.792 930.884 719.176 931.78 719.944C932.708 720.712 933.172 721.8 933.172 723.208ZM946.282 702.328C946.282 704.92 946.186 707.336 945.994 709.576C945.802 711.816 945.546 714.088 945.226 716.392H939.754C939.434 714.088 939.162 711.816 938.938 709.576C938.746 707.336 938.65 704.92 938.65 702.328V693.736H946.282V702.328ZM946.906 723.208C946.906 724.616 946.442 725.704 945.514 726.472C944.618 727.24 943.594 727.624 942.442 727.624C941.29 727.624 940.25 727.24 939.322 726.472C938.426 725.704 937.978 724.616 937.978 723.208C937.978 721.8 938.426 720.712 939.322 719.944C940.25 719.176 941.29 718.792 942.442 718.792C943.594 718.792 944.618 719.176 945.514 719.944C946.442 720.712 946.906 721.8 946.906 723.208Z" fill="#FFC909"/>
<g id="pro1">
<path id="Vector" d="M398.483 0H184.16L77 199.466L184.16 398.932H398.483L505.642 199.466L398.483 0Z" fill="#E6E6E6"/>
<path id="Vector 2" d="M196.188 376.543H386.453L481.585 199.466L386.453 22.3892H196.188L101.056 199.466L196.188 376.543Z" fill="white"/>
<path id="Vector 3" d="M193.891 156.075C198.738 156.075 202.668 151.852 202.668 146.642C202.668 141.432 198.738 137.209 193.891 137.209C189.043 137.209 185.113 141.432 185.113 146.642C185.113 151.852 189.043 156.075 193.891 156.075Z" fill="#A3A1B7"/>
<path id="Vector 4" d="M193.891 208.899C198.738 208.899 202.668 204.675 202.668 199.466C202.668 194.257 198.738 190.034 193.891 190.034C189.043 190.034 185.113 194.257 185.113 199.466C185.113 204.675 189.043 208.899 193.891 208.899Z" fill="#A3A1B7"/>
<path id="Vector 5" d="M193.891 261.724C198.738 261.724 202.668 257.5 202.668 252.29C202.668 247.081 198.738 242.857 193.891 242.857C189.043 242.857 185.113 247.081 185.113 252.29C185.113 257.5 189.043 261.724 193.891 261.724Z" fill="#A3A1B7"/>
<path id="Vector 6" d="M397.529 139.096H230.756V154.189H397.529V139.096Z" fill="#A3A1B7"/>
<path id="Vector 7" d="M397.529 191.919H230.756V207.012H397.529V191.919Z" fill="#A3A1B7"/>
<path id="Vector 8" d="M397.529 244.743H230.756V259.836H397.529V244.743Z" fill="#A3A1B7"/>
</g>
<g id="pro12">
<path id="Vector 2_2" d="M398.483 0H184.16L77 199.466L184.16 398.932H398.483L505.642 199.466L398.483 0Z" fill="#0C0329"/>
<path id="Vector 2 2" d="M196.188 376.543H386.453L481.585 199.466L386.453 22.3892H196.188L101.056 199.466L196.188 376.543Z" fill="white"/>
<path id="Vector 3 2" d="M193.891 156.075C198.738 156.075 202.668 151.852 202.668 146.642C202.668 141.432 198.738 137.209 193.891 137.209C189.043 137.209 185.113 141.432 185.113 146.642C185.113 151.852 189.043 156.075 193.891 156.075Z" fill="#FFE609"/>
<path id="Vector 4 2" d="M193.891 208.899C198.738 208.899 202.668 204.675 202.668 199.466C202.668 194.257 198.738 190.034 193.891 190.034C189.043 190.034 185.113 194.257 185.113 199.466C185.113 204.675 189.043 208.899 193.891 208.899Z" fill="#FFE609"/>
<path id="Vector 5 2" d="M193.891 261.724C198.738 261.724 202.668 257.5 202.668 252.29C202.668 247.081 198.738 242.857 193.891 242.857C189.043 242.857 185.113 247.081 185.113 252.29C185.113 257.5 189.043 261.724 193.891 261.724Z" fill="#FFE609"/>
<path id="Vector 6 2" d="M397.529 139.096H230.756V154.189H397.529V139.096Z" fill="#FFE609"/>
<path id="Vector 7 2" d="M397.529 191.919H230.756V207.012H397.529V191.919Z" fill="#FFE609"/>
<path id="Vector 8 2" d="M397.529 244.743H230.756V259.836H397.529V244.743Z" fill="#FFE609"/>
</g>
<g id="pro3">
<path id="Vector 9" d="M1459.84 0H1245.52L1138.36 199.466L1245.52 398.932H1459.84L1567 199.466L1459.84 0Z" fill="#E6E6E6"/>
<path id="Vector 10" d="M1257.55 376.543H1447.81L1542.94 199.466L1447.81 22.3892H1257.55L1162.41 199.466L1257.55 376.543Z" fill="white"/>
<path id="Vector 11" d="M1255.25 156.075C1260.1 156.075 1264.03 151.852 1264.03 146.642C1264.03 141.432 1260.1 137.209 1255.25 137.209C1250.4 137.209 1246.47 141.432 1246.47 146.642C1246.47 151.852 1250.4 156.075 1255.25 156.075Z" fill="#A3A1B7"/>
<path id="Vector 12" d="M1255.25 208.899C1260.1 208.899 1264.03 204.675 1264.03 199.466C1264.03 194.257 1260.1 190.034 1255.25 190.034C1250.4 190.034 1246.47 194.257 1246.47 199.466C1246.47 204.675 1250.4 208.899 1255.25 208.899Z" fill="#A3A1B7"/>
<path id="Vector 13" d="M1255.25 261.724C1260.1 261.724 1264.03 257.5 1264.03 252.29C1264.03 247.081 1260.1 242.857 1255.25 242.857C1250.4 242.857 1246.47 247.081 1246.47 252.29C1246.47 257.5 1250.4 261.724 1255.25 261.724Z" fill="#A3A1B7"/>
<path id="Vector 14" d="M1458.88 139.096H1292.11V154.189H1458.88V139.096Z" fill="#A3A1B7"/>
<path id="Vector 15" d="M1458.88 191.919H1292.11V207.012H1458.88V191.919Z" fill="#A3A1B7"/>
<path id="Vector 16" d="M1458.88 244.743H1292.11V259.836H1458.88V244.743Z" fill="#A3A1B7"/>
</g>
<g id="pro32">
<path id="Vector 9 2" d="M1459.84 0H1245.52L1138.36 199.466L1245.52 398.932H1459.84L1567 199.466L1459.84 0Z" fill="#0C0329"/>
<path id="Vector 10 2" d="M1257.55 376.543H1447.81L1542.94 199.466L1447.81 22.3892H1257.55L1162.41 199.466L1257.55 376.543Z" fill="white"/>
<path id="Vector 11 2" d="M1255.25 156.075C1260.1 156.075 1264.03 151.852 1264.03 146.642C1264.03 141.432 1260.1 137.209 1255.25 137.209C1250.4 137.209 1246.47 141.432 1246.47 146.642C1246.47 151.852 1250.4 156.075 1255.25 156.075Z" fill="#FFE609"/>
<path id="Vector 12 2" d="M1255.25 208.899C1260.1 208.899 1264.03 204.675 1264.03 199.466C1264.03 194.257 1260.1 190.034 1255.25 190.034C1250.4 190.034 1246.47 194.257 1246.47 199.466C1246.47 204.675 1250.4 208.899 1255.25 208.899Z" fill="#FFE609"/>
<path id="Vector 13 2" d="M1255.25 261.724C1260.1 261.724 1264.03 257.5 1264.03 252.29C1264.03 247.081 1260.1 242.857 1255.25 242.857C1250.4 242.857 1246.47 247.081 1246.47 252.29C1246.47 257.5 1250.4 261.724 1255.25 261.724Z" fill="#FFE609"/>
<path id="Vector 14 2" d="M1458.88 139.096H1292.11V154.189H1458.88V139.096Z" fill="#FFE609"/>
<path id="Vector 15 2" d="M1458.88 191.919H1292.11V207.012H1458.88V191.919Z" fill="#FFE609"/>
<path id="Vector 16 2" d="M1458.88 244.743H1292.11V259.836H1458.88V244.743Z" fill="#FFE609"/>
</g>
<g id="pro2">
<path id="Vector 17" d="M928.118 1.93701H715.878L609.759 199.466L715.878 396.995H928.118L1034.24 199.466L928.118 1.93701Z" fill="#E6E6E6"/>
<path id="Vector 18" d="M727.792 374.823H916.208L1010.42 199.465L916.208 24.1079H727.792L633.582 199.465L727.792 374.823Z" fill="white"/>
<path id="Vector 19" d="M725.515 156.497C730.315 156.497 734.207 152.313 734.207 147.155C734.207 141.996 730.315 137.813 725.515 137.813C720.714 137.813 716.823 141.996 716.823 147.155C716.823 152.313 720.714 156.497 725.515 156.497Z" fill="#A3A1B7"/>
<path id="Vector 20" d="M725.515 208.807C730.315 208.807 734.207 204.625 734.207 199.465C734.207 194.306 730.315 190.124 725.515 190.124C720.714 190.124 716.823 194.306 716.823 199.465C716.823 204.625 720.714 208.807 725.515 208.807Z" fill="#A3A1B7"/>
<path id="Vector 21" d="M725.515 261.118C730.315 261.118 734.207 256.936 734.207 251.777C734.207 246.619 730.315 242.435 725.515 242.435C720.714 242.435 716.823 246.619 716.823 251.777C716.823 256.936 720.714 261.118 725.515 261.118Z" fill="#A3A1B7"/>
<path id="Vector 22" d="M927.176 139.682H762.023V154.628H927.176V139.682Z" fill="#A3A1B7"/>
<path id="Vector 23" d="M927.176 191.992H762.023V206.938H927.176V191.992Z" fill="#A3A1B7"/>
<path id="Vector 24" d="M927.176 244.303H762.023V259.25H927.176V244.303Z" fill="#A3A1B7"/>
</g>
<g id="pro22">
<path id="Vector 17 2" d="M928.118 1.93701H715.878L609.759 199.466L715.878 396.995H928.118L1034.24 199.466L928.118 1.93701Z" fill="#0C0329"/>
<path id="Vector 18 2" d="M727.792 374.823H916.208L1010.42 199.465L916.208 24.1079H727.792L633.582 199.465L727.792 374.823Z" fill="white"/>
<path id="Vector 19 2" d="M725.515 156.497C730.315 156.497 734.207 152.313 734.207 147.155C734.207 141.996 730.315 137.813 725.515 137.813C720.714 137.813 716.823 141.996 716.823 147.155C716.823 152.313 720.714 156.497 725.515 156.497Z" fill="#FFE609"/>
<path id="Vector 20 2" d="M725.515 208.807C730.315 208.807 734.207 204.625 734.207 199.465C734.207 194.306 730.315 190.124 725.515 190.124C720.714 190.124 716.823 194.306 716.823 199.465C716.823 204.625 720.714 208.807 725.515 208.807Z" fill="#FFE609"/>
<path id="Vector 21 2" d="M725.515 261.118C730.315 261.118 734.207 256.936 734.207 251.777C734.207 246.619 730.315 242.435 725.515 242.435C720.714 242.435 716.823 246.619 716.823 251.777C716.823 256.936 720.714 261.118 725.515 261.118Z" fill="#FFE609"/>
<path id="Vector 22 2" d="M927.176 139.682H762.023V154.628H927.176V139.682Z" fill="#FFE609"/>
<path id="Vector 23 2" d="M927.176 191.992H762.023V206.938H927.176V191.992Z" fill="#FFE609"/>
<path id="Vector 24 2" d="M927.176 244.303H762.023V259.25H927.176V244.303Z" fill="#FFE609"/>
</g>
</g>
</svg>
