<svg width="50%" height="50%" viewBox="0 0 1410 928" fill="none" xmlns="http://www.w3.org/2000/svg">
<g id="hate_msg">
<path id="Vector" d="M1325.1 0H84.9006C38.2043 0 0 27.8544 0 61.8918V618.849C0 652.887 38.2043 680.734 84.9006 680.734H305.54C352.236 680.734 383.154 708.067 374.238 741.48L333.125 895.685C324.219 929.098 345.665 938.081 380.781 915.647L684.702 721.517C719.818 699.084 786.756 680.734 833.452 680.734H1325.1C1371.8 680.734 1410 652.887 1410 618.849V61.8918C1410 27.8544 1371.8 0 1325.1 0Z" fill="url(#paint0_linear)" fill-opacity="0.76"/>
<rect id="Rectangle 1" x="117" y="177" width="1176" height="316" fill="white"/>
</g>
<defs>
<linearGradient id="paint0_linear" x1="-100.938" y1="237.292" x2="1227.53" y2="1069.24" gradientUnits="userSpaceOnUse">
<stop stop-color="#072EFE"/>
<stop offset="1" stop-color="#00E0D3"/>
</linearGradient>
</defs>
</svg>
